<svg width="50" height="46" viewBox="0 0 50 46" fill="none" xmlns="http://www.w3.org/2000/svg">
<path d="M22.3216 35.2041C22.3216 35.951 22.6038 36.6674 23.1061 37.1955C23.6084 37.7237 24.2896 38.0204 25 38.0204C25.7104 38.0204 26.3916 37.7237 26.8939 37.1955C27.3962 36.6674 27.6784 35.951 27.6784 35.2041C27.6784 34.4571 27.3962 33.7408 26.8939 33.2126C26.3916 32.6845 25.7104 32.3878 25 32.3878C24.2896 32.3878 23.6084 32.6845 23.1061 33.2126C22.6038 33.7408 22.3216 34.4571 22.3216 35.2041ZM23.2144 17.3673V28.1633C23.2144 28.4214 23.4153 28.6327 23.6608 28.6327H26.3392C26.5847 28.6327 26.7856 28.4214 26.7856 28.1633V17.3673C26.7856 17.1092 26.5847 16.898 26.3392 16.898H23.6608C23.4153 16.898 23.2144 17.1092 23.2144 17.3673ZM49.7586 43.1837L26.5457 0.938776C26.1997 0.310969 25.6026 0 25 0C24.3974 0 23.7947 0.310969 23.4543 0.938776L0.241356 43.1837C-0.444989 44.4393 0.414337 46 1.78703 46H48.213C49.5857 46 50.445 44.4393 49.7586 43.1837ZM6.03902 41.5467L25 7.03495L43.961 41.5467H6.03902Z" fill="#009AAD"/>
</svg>
